<svg height="750" width="720" xmlns="http://www.w3.org/2000/svg">
<rect height="750" fill="#555" width="720"></rect>
<text fill="#7f7" font-family="Courier New" font-size="12" xml:space="preserve">
<tspan x="10" y="26">15 megabytes installed</tspan>
<tspan x="10" y="42"></tspan>
<tspan x="10" y="58">node_modules</tspan>
<tspan x="10" y="74">└─┬ seneca@3.3.0 </tspan>
<tspan x="10" y="90">  ├── archy@1.0.0 </tspan>
<tspan x="10" y="106">  ├─┬ eraro@0.4.1 </tspan>
<tspan x="10" y="122">  │ └── lodash@2.4.2 </tspan>
<tspan x="10" y="138">  ├── gate-executor@1.1.1 </tspan>
<tspan x="10" y="154">  ├─┬ gex@0.2.2 </tspan>
<tspan x="10" y="170">  │ └── lodash@3.10.0 </tspan>
<tspan x="10" y="186">  ├── json-stringify-safe@5.0.1 </tspan>
<tspan x="10" y="202">  ├── jsonic@0.2.2 </tspan>
<tspan x="10" y="218">  ├── lodash@4.15.0 </tspan>
<tspan x="10" y="234">  ├─┬ lru-cache@4.0.1 </tspan>
<tspan x="10" y="250">  │ ├── pseudomap@1.0.2 </tspan>
<tspan x="10" y="266">  │ └── yallist@2.1.2 </tspan>
<tspan x="10" y="282">  ├── minimist@1.2.0 </tspan>
<tspan x="10" y="298">  ├── nid@0.3.2 </tspan>
<tspan x="10" y="314">  ├─┬ norma@0.3.0 </tspan>
<tspan x="10" y="330">  │ └── lodash@2.4.2 </tspan>
<tspan x="10" y="346">  ├── ordu@0.1.1 </tspan>
<tspan x="10" y="362">  ├── patrun@0.5.1 </tspan>
<tspan x="10" y="378">  ├── rolling-stats@0.1.1 </tspan>
<tspan x="10" y="394">  ├── semver@5.3.0 </tspan>
<tspan x="10" y="410">  ├── seneca-log-filter@0.1.0 </tspan>
<tspan x="10" y="426">  ├─┬ seneca-transport@2.1.0 </tspan>
<tspan x="10" y="442">  │ ├─┬ ndjson@1.4.3 </tspan>
<tspan x="10" y="458">  │ │ ├── split2@0.2.1 </tspan>
<tspan x="10" y="474">  │ │ └─┬ through2@0.6.5 </tspan>
<tspan x="10" y="490">  │ │   ├─┬ readable-stream@1.0.34 </tspan>
<tspan x="10" y="506">  │ │   │ ├── core-util-is@1.0.2 </tspan>
<tspan x="10" y="522">  │ │   │ ├── inherits@2.0.3 </tspan>
<tspan x="10" y="538">  │ │   │ ├── isarray@0.0.1 </tspan>
<tspan x="10" y="554">  │ │   │ └── string_decoder@0.10.31 </tspan>
<tspan x="10" y="570">  │ │   └── xtend@4.0.1 </tspan>
<tspan x="10" y="586">  │ ├─┬ patrun@0.5.0 </tspan>
<tspan x="10" y="602">  │ │ └── lodash@3.10.0 </tspan>
<tspan x="10" y="618">  │ ├── qs@6.2.1 </tspan>
<tspan x="10" y="634">  │ ├─┬ reconnect-core@1.3.0 </tspan>
<tspan x="10" y="650">  │ │ └─┬ backoff@2.5.0 </tspan>
<tspan x="10" y="666">  │ │   └── precond@0.2.3 </tspan>
<tspan x="10" y="682">  │ └─┬ wreck@9.0.0 </tspan>
<tspan x="10" y="698">  │   ├── boom@3.2.2 </tspan>
<tspan x="10" y="714">  │   └── hoek@4.1.1 </tspan>
<tspan x="10" y="730">  └── use-plugin@0.3.2</tspan>
</text>
</svg>
